<mxfile host="app.diagrams.net" agent="Mozilla/5.0 (X11; Linux x86_64) AppleWebKit/537.36 (KHTML, like Gecko) Chrome/131.0.0.0 Safari/537.36" version="25.0.3">
  <diagram name="2feltveg" id="_E-ryEP3xBZnRYsmtdR1">
    <mxGraphModel grid="1" page="1" gridSize="10" guides="1" tooltips="1" connect="1" arrows="1" fold="1" pageScale="1" pageWidth="827" pageHeight="1169" math="0" shadow="0">
      <root>
        <mxCell id="0" />
        <mxCell id="1" parent="0" />
        <UserObject label="" tags="Background" id="VFp5yS7KTmspnzYzsPqL-1">
          <mxCell style="vsdxID=1;fillColor=none;gradientColor=none;strokeColor=none;strokeWidth=3;points=[];labelBackgroundColor=none;rounded=0;html=1;whiteSpace=wrap;" vertex="1" parent="1">
            <mxGeometry x="40" y="1059" width="760" height="72" as="geometry" />
          </mxCell>
        </UserObject>
        <mxCell id="VFp5yS7KTmspnzYzsPqL-2" value="&lt;div style=&quot;font-size: 1px&quot;&gt;&lt;p style=&quot;text-align:right;margin-left:0;margin-right:0;margin-top:0px;margin-bottom:0px;text-indent:0;vertical-align:middle;direction:ltr;&quot;&gt;&lt;font style=&quot;font-size:16.93px;font-family:Arial;color:#000000;direction:ltr;letter-spacing:0px;line-height:120%;opacity:1&quot;&gt;&lt;b&gt;Min super plan&lt;br/&gt;&lt;/b&gt;&lt;/font&gt;&lt;/p&gt;&lt;/div&gt;" style="verticalAlign=middle;align=right;overflow=width;vsdxID=2;fillColor=none;gradientColor=none;shape=stencil(nZBLDoAgDERP0z3SIyjew0SURgSD+Lu9kMZoXLhwN9O+tukAlrNpJg1SzDH4QW/URgNYgZTkjA4UkwJUgGXng+6DX1zLfmoymdXo17xh5zmRJ6Q42BWCfc2oJfdAr+Yv+AP9Cb7OJ3H/2JG1HNGz/84klThPVCc=);strokeColor=none;points=[];labelBackgroundColor=none;rounded=0;html=1;whiteSpace=wrap;" vertex="1" parent="VFp5yS7KTmspnzYzsPqL-1">
          <mxGeometry x="18" y="-3" width="741" height="52" as="geometry" />
        </mxCell>
        <mxCell id="VFp5yS7KTmspnzYzsPqL-3" value="&lt;div style=&quot;font-size: 1px&quot;&gt;&lt;p style=&quot;text-align:right;margin-left:0;margin-right:0;margin-top:0px;margin-bottom:0px;text-indent:0;vertical-align:middle;direction:ltr;&quot;&gt;&lt;/p&gt;&lt;/div&gt;" style="text;vsdxID=1;fillColor=none;gradientColor=none;strokeColor=none;strokeWidth=3;points=[];labelBackgroundColor=none;rounded=0;html=1;whiteSpace=wrap;verticalAlign=middle;align=right;overflow=width;;html=1;" vertex="1" parent="VFp5yS7KTmspnzYzsPqL-1">
          <mxGeometry y="-13.55" width="760" height="72.17" as="geometry" />
        </mxCell>
        <UserObject label="" tags="Background" id="VFp5yS7KTmspnzYzsPqL-4">
          <mxCell style="vsdxID=3;edgeStyle=none;startArrow=none;endArrow=none;startSize=5;endSize=5;strokeWidth=3;strokeColor=#000000;spacingTop=0;spacingBottom=0;spacingLeft=0;spacingRight=0;verticalAlign=middle;html=1;labelBackgroundColor=none;rounded=0;" edge="1" parent="VFp5yS7KTmspnzYzsPqL-1">
            <mxGeometry relative="1" as="geometry">
              <mxPoint as="offset" />
              <Array as="points" />
              <mxPoint y="-1" as="sourcePoint" />
              <mxPoint x="760" y="-1" as="targetPoint" />
            </mxGeometry>
          </mxCell>
        </UserObject>
        <UserObject label="" tags="Background" id="VFp5yS7KTmspnzYzsPqL-5">
          <mxCell style="vsdxID=73;fillColor=none;gradientColor=none;strokeColor=none;points=[];labelBackgroundColor=none;rounded=0;html=1;whiteSpace=wrap;" vertex="1" parent="1">
            <mxGeometry x="360" y="40" width="120" height="979" as="geometry" />
          </mxCell>
        </UserObject>
        <mxCell id="VFp5yS7KTmspnzYzsPqL-6" style="vsdxID=7;fillColor=#C0C0C0;gradientColor=none;shape=stencil(nZBLDoAgDERP0z3SIyjew0SURgSD+Lu9kMZoXLhwN9O+tukAlrNpJg1SzDH4QW/URgNYgZTkjA4UkwJUgGXng+6DX1zLfmoymdXo17xh5zmRJ6Q42BWCfc2oJfdAr+Yv+AP9Cb7OJ3H/2JG1HNGz/84klThPVCc=);strokeColor=none;points=[];labelBackgroundColor=none;rounded=0;html=1;whiteSpace=wrap;" vertex="1" parent="VFp5yS7KTmspnzYzsPqL-5">
          <mxGeometry width="120" height="979" as="geometry" />
        </mxCell>
        <mxCell id="VFp5yS7KTmspnzYzsPqL-7" style="vsdxID=4;fillColor=none;gradientColor=none;strokeColor=none;points=[];labelBackgroundColor=none;rounded=0;html=1;whiteSpace=wrap;" vertex="1" parent="VFp5yS7KTmspnzYzsPqL-5">
          <mxGeometry x="59" y="34" width="1" height="905" as="geometry" />
        </mxCell>
        <UserObject label="" tags="Background" id="VFp5yS7KTmspnzYzsPqL-8">
          <mxCell style="vsdxID=14;edgeStyle=none;startArrow=none;endArrow=none;startSize=5;endSize=5;strokeWidth=2;strokeColor=#FFFF00;spacingTop=0;spacingBottom=0;spacingLeft=0;spacingRight=0;verticalAlign=middle;html=1;labelBackgroundColor=none;rounded=0;" edge="1" parent="VFp5yS7KTmspnzYzsPqL-7">
            <mxGeometry relative="1" as="geometry">
              <Array as="points" />
              <mxPoint y="-1" as="sourcePoint" />
              <mxPoint y="16" as="targetPoint" />
            </mxGeometry>
          </mxCell>
        </UserObject>
        <UserObject label="" tags="Background" id="VFp5yS7KTmspnzYzsPqL-9">
          <mxCell style="vsdxID=15;edgeStyle=none;startArrow=none;endArrow=none;startSize=5;endSize=5;strokeWidth=2;strokeColor=#FFFF00;spacingTop=0;spacingBottom=0;spacingLeft=0;spacingRight=0;verticalAlign=middle;html=1;labelBackgroundColor=none;rounded=0;" edge="1" parent="VFp5yS7KTmspnzYzsPqL-7">
            <mxGeometry relative="1" as="geometry">
              <Array as="points" />
              <mxPoint y="68" as="sourcePoint" />
              <mxPoint y="85" as="targetPoint" />
            </mxGeometry>
          </mxCell>
        </UserObject>
        <UserObject label="" tags="Background" id="VFp5yS7KTmspnzYzsPqL-10">
          <mxCell style="vsdxID=16;edgeStyle=none;startArrow=none;endArrow=none;startSize=5;endSize=5;strokeWidth=2;strokeColor=#FFFF00;spacingTop=0;spacingBottom=0;spacingLeft=0;spacingRight=0;verticalAlign=middle;html=1;labelBackgroundColor=none;rounded=0;" edge="1" parent="VFp5yS7KTmspnzYzsPqL-7">
            <mxGeometry relative="1" as="geometry">
              <Array as="points" />
              <mxPoint y="136" as="sourcePoint" />
              <mxPoint y="153" as="targetPoint" />
            </mxGeometry>
          </mxCell>
        </UserObject>
        <UserObject label="" tags="Background" id="VFp5yS7KTmspnzYzsPqL-11">
          <mxCell style="vsdxID=5;edgeStyle=none;startArrow=none;endArrow=none;startSize=5;endSize=5;strokeWidth=2;strokeColor=#FFFF00;spacingTop=0;spacingBottom=0;spacingLeft=0;spacingRight=0;verticalAlign=middle;html=1;labelBackgroundColor=none;rounded=0;" edge="1" parent="VFp5yS7KTmspnzYzsPqL-7">
            <mxGeometry relative="1" as="geometry">
              <Array as="points" />
              <mxPoint y="204" as="sourcePoint" />
              <mxPoint y="221" as="targetPoint" />
            </mxGeometry>
          </mxCell>
        </UserObject>
        <UserObject label="" tags="Background" id="VFp5yS7KTmspnzYzsPqL-12">
          <mxCell style="vsdxID=13;edgeStyle=none;startArrow=none;endArrow=none;startSize=5;endSize=5;strokeWidth=2;strokeColor=#FFFF00;spacingTop=0;spacingBottom=0;spacingLeft=0;spacingRight=0;verticalAlign=middle;html=1;labelBackgroundColor=none;rounded=0;" edge="1" parent="VFp5yS7KTmspnzYzsPqL-7">
            <mxGeometry relative="1" as="geometry">
              <Array as="points" />
              <mxPoint y="272" as="sourcePoint" />
              <mxPoint y="289" as="targetPoint" />
            </mxGeometry>
          </mxCell>
        </UserObject>
        <UserObject label="" tags="Background" id="VFp5yS7KTmspnzYzsPqL-13">
          <mxCell style="vsdxID=21;edgeStyle=none;startArrow=none;endArrow=none;startSize=5;endSize=5;strokeWidth=2;strokeColor=#FFFF00;spacingTop=0;spacingBottom=0;spacingLeft=0;spacingRight=0;verticalAlign=middle;html=1;labelBackgroundColor=none;rounded=0;" edge="1" parent="VFp5yS7KTmspnzYzsPqL-7">
            <mxGeometry relative="1" as="geometry">
              <Array as="points" />
              <mxPoint y="341" as="sourcePoint" />
              <mxPoint y="358" as="targetPoint" />
            </mxGeometry>
          </mxCell>
        </UserObject>
        <UserObject label="" tags="Background" id="VFp5yS7KTmspnzYzsPqL-14">
          <mxCell style="vsdxID=22;edgeStyle=none;startArrow=none;endArrow=none;startSize=5;endSize=5;strokeWidth=2;strokeColor=#FFFF00;spacingTop=0;spacingBottom=0;spacingLeft=0;spacingRight=0;verticalAlign=middle;html=1;labelBackgroundColor=none;rounded=0;" edge="1" parent="VFp5yS7KTmspnzYzsPqL-7">
            <mxGeometry relative="1" as="geometry">
              <Array as="points" />
              <mxPoint y="409" as="sourcePoint" />
              <mxPoint y="426" as="targetPoint" />
            </mxGeometry>
          </mxCell>
        </UserObject>
        <UserObject label="" tags="Background" id="VFp5yS7KTmspnzYzsPqL-15">
          <mxCell style="vsdxID=23;edgeStyle=none;startArrow=none;endArrow=none;startSize=5;endSize=5;strokeWidth=2;strokeColor=#FFFF00;spacingTop=0;spacingBottom=0;spacingLeft=0;spacingRight=0;verticalAlign=middle;html=1;labelBackgroundColor=none;rounded=0;" edge="1" parent="VFp5yS7KTmspnzYzsPqL-7">
            <mxGeometry relative="1" as="geometry">
              <Array as="points" />
              <mxPoint x="1" y="478" as="sourcePoint" />
              <mxPoint x="1" y="495" as="targetPoint" />
            </mxGeometry>
          </mxCell>
        </UserObject>
        <UserObject label="" tags="Background" id="VFp5yS7KTmspnzYzsPqL-16">
          <mxCell style="vsdxID=24;edgeStyle=none;startArrow=none;endArrow=none;startSize=5;endSize=5;strokeWidth=2;strokeColor=#FFFF00;spacingTop=0;spacingBottom=0;spacingLeft=0;spacingRight=0;verticalAlign=middle;html=1;labelBackgroundColor=none;rounded=0;" edge="1" parent="VFp5yS7KTmspnzYzsPqL-7">
            <mxGeometry relative="1" as="geometry">
              <Array as="points" />
              <mxPoint x="1" y="546" as="sourcePoint" />
              <mxPoint x="1" y="563" as="targetPoint" />
            </mxGeometry>
          </mxCell>
        </UserObject>
        <UserObject label="" tags="Background" id="VFp5yS7KTmspnzYzsPqL-17">
          <mxCell style="vsdxID=25;edgeStyle=none;startArrow=none;endArrow=none;startSize=5;endSize=5;strokeWidth=2;strokeColor=#FFFF00;spacingTop=0;spacingBottom=0;spacingLeft=0;spacingRight=0;verticalAlign=middle;html=1;labelBackgroundColor=none;rounded=0;" edge="1" parent="VFp5yS7KTmspnzYzsPqL-7">
            <mxGeometry relative="1" as="geometry">
              <Array as="points" />
              <mxPoint x="1" y="614" as="sourcePoint" />
              <mxPoint x="1" y="631" as="targetPoint" />
            </mxGeometry>
          </mxCell>
        </UserObject>
        <UserObject label="" tags="Background" id="VFp5yS7KTmspnzYzsPqL-18">
          <mxCell style="vsdxID=26;edgeStyle=none;startArrow=none;endArrow=none;startSize=5;endSize=5;strokeWidth=2;strokeColor=#FFFF00;spacingTop=0;spacingBottom=0;spacingLeft=0;spacingRight=0;verticalAlign=middle;html=1;labelBackgroundColor=none;rounded=0;" edge="1" parent="VFp5yS7KTmspnzYzsPqL-7">
            <mxGeometry relative="1" as="geometry">
              <Array as="points" />
              <mxPoint x="1" y="683" as="sourcePoint" />
              <mxPoint x="1" y="699" as="targetPoint" />
            </mxGeometry>
          </mxCell>
        </UserObject>
        <UserObject label="" tags="Background" id="VFp5yS7KTmspnzYzsPqL-19">
          <mxCell style="vsdxID=11;edgeStyle=none;startArrow=none;endArrow=none;startSize=5;endSize=5;strokeWidth=2;strokeColor=#FFFF00;spacingTop=0;spacingBottom=0;spacingLeft=0;spacingRight=0;verticalAlign=middle;html=1;labelBackgroundColor=none;rounded=0;" edge="1" parent="VFp5yS7KTmspnzYzsPqL-7">
            <mxGeometry relative="1" as="geometry">
              <Array as="points" />
              <mxPoint x="1" y="751" as="sourcePoint" />
              <mxPoint x="1" y="768" as="targetPoint" />
            </mxGeometry>
          </mxCell>
        </UserObject>
        <UserObject label="" tags="Background" id="VFp5yS7KTmspnzYzsPqL-20">
          <mxCell style="vsdxID=27;edgeStyle=none;startArrow=none;endArrow=none;startSize=5;endSize=5;strokeWidth=2;strokeColor=#FFFF00;spacingTop=0;spacingBottom=0;spacingLeft=0;spacingRight=0;verticalAlign=middle;html=1;labelBackgroundColor=none;rounded=0;" edge="1" parent="VFp5yS7KTmspnzYzsPqL-7">
            <mxGeometry relative="1" as="geometry">
              <Array as="points" />
              <mxPoint x="1" y="819" as="sourcePoint" />
              <mxPoint x="1" y="836" as="targetPoint" />
            </mxGeometry>
          </mxCell>
        </UserObject>
        <UserObject label="" tags="Background" id="VFp5yS7KTmspnzYzsPqL-21">
          <mxCell style="vsdxID=10;edgeStyle=none;startArrow=none;endArrow=none;startSize=5;endSize=5;strokeWidth=2;strokeColor=#FFFF00;spacingTop=0;spacingBottom=0;spacingLeft=0;spacingRight=0;verticalAlign=middle;html=1;labelBackgroundColor=none;rounded=0;" edge="1" parent="VFp5yS7KTmspnzYzsPqL-7">
            <mxGeometry relative="1" as="geometry">
              <Array as="points" />
              <mxPoint x="1" y="888" as="sourcePoint" />
              <mxPoint x="1" y="905" as="targetPoint" />
            </mxGeometry>
          </mxCell>
        </UserObject>
        <UserObject label="" tags="Background" id="VFp5yS7KTmspnzYzsPqL-22">
          <mxCell style="vsdxID=8;edgeStyle=none;startArrow=none;endArrow=none;startSize=5;endSize=5;strokeColor=#FFFFFF;spacingTop=0;spacingBottom=0;spacingLeft=0;spacingRight=0;verticalAlign=middle;html=1;labelBackgroundColor=none;rounded=0;" edge="1" parent="VFp5yS7KTmspnzYzsPqL-5">
            <mxGeometry relative="1" as="geometry">
              <Array as="points" />
              <mxPoint x="12" as="sourcePoint" />
              <mxPoint x="9" y="979" as="targetPoint" />
            </mxGeometry>
          </mxCell>
        </UserObject>
        <UserObject label="" tags="Background" id="VFp5yS7KTmspnzYzsPqL-23">
          <mxCell style="vsdxID=9;edgeStyle=none;startArrow=none;endArrow=none;startSize=5;endSize=5;strokeColor=#FFFFFF;spacingTop=0;spacingBottom=0;spacingLeft=0;spacingRight=0;verticalAlign=middle;html=1;labelBackgroundColor=none;rounded=0;" edge="1" parent="VFp5yS7KTmspnzYzsPqL-5">
            <mxGeometry relative="1" as="geometry">
              <Array as="points" />
              <mxPoint x="107" as="sourcePoint" />
              <mxPoint x="108" y="979" as="targetPoint" />
            </mxGeometry>
          </mxCell>
        </UserObject>
        <UserObject label="" tags="Background" id="VFp5yS7KTmspnzYzsPqL-24">
          <mxCell style="vsdxID=34;fillColor=none;gradientColor=none;strokeColor=none;points=[];labelBackgroundColor=none;rounded=0;html=1;whiteSpace=wrap;" vertex="1" parent="1">
            <mxGeometry x="252" y="59" width="345" height="940" as="geometry" />
          </mxCell>
        </UserObject>
        <mxCell id="VFp5yS7KTmspnzYzsPqL-25" style="vsdxID=17;fillColor=none;gradientColor=none;strokeColor=none;spacingTop=-3;spacingBottom=-3;spacingLeft=-3;spacingRight=-3;points=[];labelBackgroundColor=none;rounded=0;html=1;whiteSpace=wrap;" vertex="1" parent="VFp5yS7KTmspnzYzsPqL-24">
          <mxGeometry x="226" y="934" width="16" height="4" as="geometry" />
        </mxCell>
        <mxCell id="VFp5yS7KTmspnzYzsPqL-26" style="vsdxID=18;edgeStyle=none;startArrow=none;endArrow=none;startSize=5;endSize=5;strokeWidth=3;strokeColor=#000000;spacingTop=0;spacingBottom=0;spacingLeft=0;spacingRight=0;verticalAlign=middle;html=1;labelBackgroundColor=none;rounded=0;" edge="1" parent="VFp5yS7KTmspnzYzsPqL-25">
          <mxGeometry relative="1" as="geometry">
            <mxPoint as="offset" />
            <Array as="points" />
            <mxPoint y="4" as="sourcePoint" />
            <mxPoint x="16" y="4" as="targetPoint" />
          </mxGeometry>
        </mxCell>
        <mxCell id="VFp5yS7KTmspnzYzsPqL-27" style="vsdxID=19;fillColor=#C0C0C0;gradientColor=none;shape=stencil(rVFBDsIwDHtNj5VCK14wxj8ilm0VZZ3SAuX3tAoIBhwQ4mbHjhMlyjZxxJmUgZg47OnsujQqu1HGuGkkdqkgZVtlmz4wDRyOUyd8xuqs6BBONSFLH9QOAxdha6FbcSLvisR5oQEvvfegFXyMgqwxu6g5JEwuTIupHnkgXcbo3uNwyxEpnonmt/Ivi/1nLfhirQIeZ+6d9/KlZ/31LaUkL7XtFQ==);strokeColor=#000000;strokeWidth=3;points=[];labelBackgroundColor=none;rounded=0;html=1;whiteSpace=wrap;" vertex="1" parent="VFp5yS7KTmspnzYzsPqL-25">
          <mxGeometry x="6" width="3" height="3" as="geometry" />
        </mxCell>
        <mxCell id="VFp5yS7KTmspnzYzsPqL-28" value="&lt;div style=&quot;font-size: 1px&quot;&gt;&lt;font style=&quot;font-size:14.11px;font-family:Arial;color:#000000;direction:ltr;letter-spacing:0px;line-height:120%;opacity:1&quot;&gt;0&lt;br/&gt;&lt;/font&gt;&lt;/div&gt;" style="verticalAlign=middle;align=center;overflow=width;vsdxID=47;fillColor=none;gradientColor=none;shape=stencil(nZBLDoAgDERP0z3SIyjew0SURgSD+Lu9kMZoXLhwN9O+tukAlrNpJg1SzDH4QW/URgNYgZTkjA4UkwJUgGXng+6DX1zLfmoymdXo17xh5zmRJ6Q42BWCfc2oJfdAr+Yv+AP9Cb7OJ3H/2JG1HNGz/84klThPVCc=);strokeColor=none;points=[];labelBackgroundColor=none;rounded=0;html=1;whiteSpace=wrap;" vertex="1" parent="VFp5yS7KTmspnzYzsPqL-24">
          <mxGeometry x="57" y="240" width="20" height="20" as="geometry" />
        </mxCell>
        <mxCell id="VFp5yS7KTmspnzYzsPqL-29" value="&lt;div style=&quot;font-size: 1px&quot;&gt;&lt;font style=&quot;font-size:14.11px;font-family:Arial;color:#000000;direction:ltr;letter-spacing:0px;line-height:120%;opacity:1&quot;&gt;0&lt;br/&gt;&lt;/font&gt;&lt;/div&gt;" style="verticalAlign=middle;align=center;overflow=width;vsdxID=48;fillColor=none;gradientColor=none;shape=stencil(nZBLDoAgDERP0z3SIyjew0SURgSD+Lu9kMZoXLhwN9O+tukAlrNpJg1SzDH4QW/URgNYgZTkjA4UkwJUgGXng+6DX1zLfmoymdXo17xh5zmRJ6Q42BWCfc2oJfdAr+Yv+AP9Cb7OJ3H/2JG1HNGz/84klThPVCc=);strokeColor=none;points=[];labelBackgroundColor=none;rounded=0;html=1;whiteSpace=wrap;" vertex="1" parent="VFp5yS7KTmspnzYzsPqL-24">
          <mxGeometry x="258" y="680" width="20" height="18" as="geometry" />
        </mxCell>
        <mxCell id="VFp5yS7KTmspnzYzsPqL-30" style="vsdxID=29;fillColor=none;gradientColor=none;strokeColor=none;spacingTop=-3;spacingBottom=-3;spacingLeft=-3;spacingRight=-3;flipV=1;points=[];labelBackgroundColor=none;rounded=0;html=1;whiteSpace=wrap;" vertex="1" parent="VFp5yS7KTmspnzYzsPqL-24">
          <mxGeometry x="92" width="16" height="4" as="geometry" />
        </mxCell>
        <mxCell id="VFp5yS7KTmspnzYzsPqL-31" style="vsdxID=30;edgeStyle=none;startArrow=none;endArrow=none;startSize=5;endSize=5;strokeWidth=3;strokeColor=#000000;spacingTop=0;spacingBottom=0;spacingLeft=0;spacingRight=0;verticalAlign=middle;html=1;labelBackgroundColor=none;rounded=0;" edge="1" parent="VFp5yS7KTmspnzYzsPqL-30">
          <mxGeometry relative="1" as="geometry">
            <mxPoint as="offset" />
            <Array as="points" />
            <mxPoint y="4" as="sourcePoint" />
            <mxPoint x="16" y="4" as="targetPoint" />
          </mxGeometry>
        </mxCell>
        <mxCell id="VFp5yS7KTmspnzYzsPqL-32" style="vsdxID=31;fillColor=#C0C0C0;gradientColor=none;shape=stencil(rVFBDsIwDHtNj5VCK14wxj8ilm0VZZ3SAuX3tAoIBhwQ4mbHjhMlyjZxxJmUgZg47OnsujQqu1HGuGkkdqkgZVtlmz4wDRyOUyd8xuqs6BBONSFLH9QOAxdha6FbcSLvisR5oQEvvfegFXyMgqwxu6g5JEwuTIupHnkgXcbo3uNwyxEpnonmt/Ivi/1nLfhirQIeZ+6d9/KlZ/31LaUkL7XtFQ==);strokeColor=#000000;strokeWidth=3;points=[];labelBackgroundColor=none;rounded=0;html=1;whiteSpace=wrap;" vertex="1" parent="VFp5yS7KTmspnzYzsPqL-30">
          <mxGeometry x="6" width="3" height="3" as="geometry" />
        </mxCell>
        <UserObject label="" tags="Background" id="VFp5yS7KTmspnzYzsPqL-33">
          <mxCell style="vsdxID=33;edgeStyle=none;startArrow=none;endArrow=none;startSize=5;endSize=5;strokeColor=#000000;spacingTop=0;spacingBottom=0;spacingLeft=0;spacingRight=0;verticalAlign=middle;html=1;labelBackgroundColor=none;rounded=0;" edge="1" parent="VFp5yS7KTmspnzYzsPqL-24">
            <mxGeometry relative="1" as="geometry">
              <Array as="points" />
              <mxPoint x="244" y="939" as="sourcePoint" />
              <mxPoint x="345" y="940" as="targetPoint" />
            </mxGeometry>
          </mxCell>
        </UserObject>
        <UserObject label="" tags="Background" id="VFp5yS7KTmspnzYzsPqL-34">
          <mxCell style="vsdxID=37;edgeStyle=none;startArrow=none;endArrow=none;startSize=5;endSize=5;strokeColor=#000000;spacingTop=0;spacingBottom=0;spacingLeft=0;spacingRight=0;verticalAlign=middle;html=1;labelBackgroundColor=none;rounded=0;" edge="1" parent="VFp5yS7KTmspnzYzsPqL-24">
            <mxGeometry relative="1" as="geometry">
              <mxPoint x="-1" as="offset" />
              <Array as="points" />
              <mxPoint x="232" y="680" as="sourcePoint" />
              <mxPoint x="310" y="680" as="targetPoint" />
            </mxGeometry>
          </mxCell>
        </UserObject>
        <UserObject label="" tags="Background" id="VFp5yS7KTmspnzYzsPqL-35">
          <mxCell style="vsdxID=44;edgeStyle=none;startArrow=none;endArrow=oval;startSize=5;endSize=5;strokeColor=#000000;spacingTop=0;spacingBottom=0;spacingLeft=0;spacingRight=0;verticalAlign=middle;html=1;labelBackgroundColor=none;rounded=0;" edge="1" parent="VFp5yS7KTmspnzYzsPqL-24">
            <mxGeometry relative="1" as="geometry">
              <Array as="points" />
              <mxPoint x="258" y="680" as="sourcePoint" />
              <mxPoint x="258" y="939" as="targetPoint" />
            </mxGeometry>
          </mxCell>
        </UserObject>
        <mxCell id="VFp5yS7KTmspnzYzsPqL-36" value="&lt;div style=&quot;font-size: 1px&quot;&gt;&lt;font style=&quot;font-size:14.11px;font-family:Arial;color:#000000;direction:ltr;letter-spacing:0px;line-height:120%;opacity:1&quot;&gt;xm&lt;br/&gt;&lt;/font&gt;&lt;/div&gt;" style="text;vsdxID=44;edgeStyle=none;startArrow=none;endArrow=oval;startSize=5;endSize=5;strokeColor=none;spacingTop=0;spacingBottom=0;spacingLeft=0;spacingRight=0;verticalAlign=middle;html=1;labelBackgroundColor=none;rounded=0;align=center;fillColor=none;gradientColor=none;whiteSpace=wrap;;html=1;;rotation=449.71094402973273" vertex="1" parent="VFp5yS7KTmspnzYzsPqL-35">
          <mxGeometry width="61.28" relative="1" as="geometry">
            <mxPoint x="213.36" y="-29" as="offset" />
          </mxGeometry>
        </mxCell>
        <UserObject label="" tags="Background" id="VFp5yS7KTmspnzYzsPqL-37">
          <mxCell style="vsdxID=45;edgeStyle=none;startArrow=none;endArrow=none;startSize=5;endSize=5;strokeColor=#000000;spacingTop=0;spacingBottom=0;spacingLeft=0;spacingRight=0;verticalAlign=middle;html=1;labelBackgroundColor=none;rounded=0;" edge="1" parent="VFp5yS7KTmspnzYzsPqL-24">
            <mxGeometry relative="1" as="geometry">
              <Array as="points" />
              <mxPoint x="10" y="260" as="sourcePoint" />
              <mxPoint x="96" y="259" as="targetPoint" />
            </mxGeometry>
          </mxCell>
        </UserObject>
        <UserObject label="" tags="Background" id="VFp5yS7KTmspnzYzsPqL-38">
          <mxCell style="vsdxID=46;edgeStyle=none;startArrow=none;endArrow=oval;startSize=5;endSize=5;strokeColor=#000000;spacingTop=0;spacingBottom=0;spacingLeft=0;spacingRight=0;verticalAlign=middle;html=1;labelBackgroundColor=none;rounded=0;" edge="1" parent="VFp5yS7KTmspnzYzsPqL-24">
            <mxGeometry relative="1" as="geometry">
              <Array as="points" />
              <mxPoint x="77" y="260" as="sourcePoint" />
              <mxPoint x="78" as="targetPoint" />
            </mxGeometry>
          </mxCell>
        </UserObject>
        <mxCell id="VFp5yS7KTmspnzYzsPqL-39" value="&lt;div style=&quot;font-size: 1px&quot;&gt;&lt;font style=&quot;font-size:14.11px;font-family:Arial;color:#000000;direction:ltr;letter-spacing:0px;line-height:120%;opacity:1&quot;&gt;xm&lt;br/&gt;&lt;/font&gt;&lt;/div&gt;" style="text;vsdxID=46;edgeStyle=none;startArrow=none;endArrow=oval;startSize=5;endSize=5;strokeColor=none;spacingTop=0;spacingBottom=0;spacingLeft=0;spacingRight=0;verticalAlign=middle;html=1;labelBackgroundColor=none;rounded=0;align=center;fillColor=none;gradientColor=none;whiteSpace=wrap;;html=1;;rotation=270.1058039241078" vertex="1" parent="VFp5yS7KTmspnzYzsPqL-38">
          <mxGeometry width="55.21" relative="1" as="geometry">
            <mxPoint x="219.395" y="-28" as="offset" />
          </mxGeometry>
        </mxCell>
        <UserObject label="" tags="Background" id="VFp5yS7KTmspnzYzsPqL-40">
          <mxCell style="vsdxID=72;edgeStyle=none;startArrow=none;endArrow=none;startSize=5;endSize=5;strokeColor=#000000;spacingTop=0;spacingBottom=0;spacingLeft=0;spacingRight=0;verticalAlign=middle;html=1;labelBackgroundColor=none;rounded=0;" edge="1" parent="VFp5yS7KTmspnzYzsPqL-24">
            <mxGeometry relative="1" as="geometry">
              <mxPoint as="offset" />
              <Array as="points" />
              <mxPoint y="-1" as="sourcePoint" />
              <mxPoint x="88" y="-1" as="targetPoint" />
            </mxGeometry>
          </mxCell>
        </UserObject>
      </root>
    </mxGraphModel>
  </diagram>
</mxfile>
